<svg width="2700" height="402" viewBox="0 0 2700 402" fill="none" xmlns="http://www.w3.org/2000/svg">
<path d="M823.366 327.096C805.787 327.096 789.574 323 774.726 314.808C760.049 306.445 748.358 295.011 739.654 280.504C730.95 265.827 726.598 249.443 726.598 231.352C726.598 213.261 730.95 196.963 739.654 182.456C748.358 167.779 760.049 156.344 774.726 148.152C789.574 139.789 805.787 135.608 823.366 135.608C837.702 135.608 850.758 138.168 862.534 143.288C874.481 148.237 884.635 155.32 892.998 164.536L869.19 187.832C863.046 181.347 856.219 176.483 848.71 173.24C841.371 169.997 832.753 168.376 822.854 168.376C811.761 168.376 801.435 171.021 791.878 176.312C782.491 181.603 774.982 189.027 769.35 198.584C763.889 208.141 761.158 219.064 761.158 231.352C761.158 243.64 763.974 254.563 769.606 264.12C775.238 273.677 782.747 281.101 792.134 286.392C801.691 291.683 812.102 294.328 823.366 294.328C840.262 294.328 854.342 289.293 865.606 279.224C869.019 275.981 871.921 272.056 874.31 267.448C876.87 262.669 878.747 257.464 879.942 251.832H822.598V222.392H912.454C913.649 227.171 914.246 232.547 914.246 238.52C914.246 250.637 912.369 261.901 908.614 272.312C905.03 282.723 899.483 291.853 891.974 299.704C883.611 308.579 873.627 315.405 862.022 320.184C850.587 324.792 837.702 327.096 823.366 327.096ZM946.058 139.704H1008.01C1027.12 139.704 1043.76 143.544 1057.93 151.224C1072.1 158.904 1083.02 169.656 1090.7 183.48C1098.38 197.304 1102.22 213.261 1102.22 231.352C1102.22 249.443 1098.38 265.4 1090.7 279.224C1083.02 293.048 1072.1 303.8 1057.93 311.48C1043.76 319.16 1027.12 323 1008.01 323H946.058V139.704ZM1006.47 290.232C1026.27 290.232 1041.38 285.027 1051.79 274.616C1062.37 264.035 1067.66 249.613 1067.66 231.352C1067.66 213.091 1062.37 198.755 1051.79 188.344C1041.38 177.763 1026.27 172.472 1006.47 172.472H980.618V290.232H1006.47ZM1221.62 327.096C1204.04 327.096 1187.82 323 1172.98 314.808C1158.3 306.445 1146.61 295.011 1137.9 280.504C1129.2 265.827 1124.85 249.443 1124.85 231.352C1124.85 213.261 1129.2 196.963 1137.9 182.456C1146.61 167.779 1158.3 156.344 1172.98 148.152C1187.82 139.789 1204.04 135.608 1221.62 135.608C1235.95 135.608 1249.01 138.168 1260.78 143.288C1272.73 148.237 1282.89 155.32 1291.25 164.536L1267.44 187.832C1261.3 181.347 1254.47 176.483 1246.96 173.24C1239.62 169.997 1231 168.376 1221.1 168.376C1210.01 168.376 1199.69 171.021 1190.13 176.312C1180.74 181.603 1173.23 189.027 1167.6 198.584C1162.14 208.141 1159.41 219.064 1159.41 231.352C1159.41 243.64 1162.22 254.563 1167.86 264.12C1173.49 273.677 1181 281.101 1190.38 286.392C1199.94 291.683 1210.35 294.328 1221.62 294.328C1238.51 294.328 1252.59 289.293 1263.86 279.224C1267.27 275.981 1270.17 272.056 1272.56 267.448C1275.12 262.669 1277 257.464 1278.19 251.832H1220.85V222.392H1310.7C1311.9 227.171 1312.5 232.547 1312.5 238.52C1312.5 250.637 1310.62 261.901 1306.86 272.312C1303.28 282.723 1297.73 291.853 1290.22 299.704C1281.86 308.579 1271.88 315.405 1260.27 320.184C1248.84 324.792 1235.95 327.096 1221.62 327.096ZM1403.31 139.704H1470.12C1482.07 139.704 1492.65 142.179 1501.87 147.128C1511.25 152.077 1518.51 158.989 1523.63 167.864C1528.75 176.568 1531.31 186.467 1531.31 197.56C1531.31 209.336 1527.55 219.832 1520.04 229.048C1512.71 238.093 1503.4 244.664 1492.14 248.76L1491.88 250.552L1541.04 320.952V323H1501.36L1454 254.136H1437.87V323H1403.31V139.704ZM1469.87 222.392C1477.72 222.392 1484.12 220.003 1489.07 215.224C1494.19 210.445 1496.75 204.387 1496.75 197.048C1496.75 190.051 1494.36 184.077 1489.58 179.128C1484.97 174.179 1478.57 171.704 1470.38 171.704H1437.87V222.392H1469.87ZM1618.12 327.096C1605.15 327.096 1593.55 324.195 1583.31 318.392C1573.07 312.589 1565.04 304.568 1559.24 294.328C1553.44 283.917 1550.54 272.312 1550.54 259.512C1550.54 246.541 1553.44 234.936 1559.24 224.696C1565.04 214.456 1573.07 206.435 1583.31 200.632C1593.55 194.829 1605.15 191.928 1618.12 191.928C1630.92 191.928 1642.44 194.829 1652.68 200.632C1662.92 206.435 1670.94 214.541 1676.75 224.952C1682.55 235.192 1685.45 246.712 1685.45 259.512C1685.45 272.312 1682.55 283.917 1676.75 294.328C1670.94 304.568 1662.92 312.589 1652.68 318.392C1642.44 324.195 1630.92 327.096 1618.12 327.096ZM1618.12 296.12C1624.1 296.12 1629.64 294.669 1634.76 291.768C1640.05 288.696 1644.23 284.429 1647.31 278.968C1650.38 273.336 1651.91 266.851 1651.91 259.512C1651.91 252.173 1650.38 245.773 1647.31 240.312C1644.23 234.68 1640.05 230.413 1634.76 227.512C1629.64 224.44 1624.1 222.904 1618.12 222.904C1611.98 222.904 1606.26 224.44 1600.97 227.512C1595.85 230.413 1591.75 234.68 1588.68 240.312C1585.61 245.773 1584.07 252.173 1584.07 259.512C1584.07 266.851 1585.61 273.336 1588.68 278.968C1591.75 284.429 1595.85 288.696 1600.97 291.768C1606.26 294.669 1611.98 296.12 1618.12 296.12ZM1707.46 196.024H1738.94V212.408H1740.99C1744.92 206.093 1750.29 201.144 1757.12 197.56C1763.95 193.805 1771.46 191.928 1779.65 191.928C1788.86 191.928 1796.8 194.061 1803.46 198.328C1810.28 202.595 1815.15 208.141 1818.05 214.968C1822.31 208.141 1828.12 202.595 1835.46 198.328C1842.79 194.061 1851.33 191.928 1861.06 191.928C1875.9 191.928 1887.08 196.536 1894.59 205.752C1902.27 214.797 1906.11 227 1906.11 242.36V323H1872.83V248.504C1872.83 240.141 1870.95 233.827 1867.2 229.56C1863.62 225.123 1858.41 222.904 1851.58 222.904C1842.88 222.904 1836.05 226.403 1831.1 233.4C1826.15 240.397 1823.68 249.443 1823.68 260.536V323H1790.14V248.504C1790.14 231.437 1782.63 222.904 1767.62 222.904C1759.42 222.904 1752.94 226.403 1748.16 233.4C1743.38 240.397 1740.99 249.443 1740.99 260.536V323H1707.46V196.024ZM1975.13 327.096C1966.43 327.096 1958.49 325.304 1951.32 321.72C1944.15 317.965 1938.52 312.845 1934.43 306.36C1930.33 299.704 1928.28 292.195 1928.28 283.832C1928.28 275.299 1930.5 267.789 1934.94 261.304C1939.55 254.648 1945.78 249.613 1953.63 246.2C1961.48 242.616 1970.27 240.824 1979.99 240.824C1993.14 240.824 2004.31 242.787 2013.53 246.712V242.36C2013.53 235.533 2010.88 229.987 2005.59 225.72C2000.3 221.283 1993.56 219.064 1985.37 219.064C1972.91 219.064 1962.84 224.013 1955.16 233.912L1931.61 217.016C1937.92 208.824 1945.78 202.595 1955.16 198.328C1964.55 194.061 1974.87 191.928 1986.14 191.928C2005.76 191.928 2020.7 196.536 2030.94 205.752C2041.35 214.968 2046.55 228.451 2046.55 246.2V323H2013.53V309.688H2011.48C2002.1 321.293 1989.98 327.096 1975.13 327.096ZM1982.81 300.984C1988.78 300.984 1994.07 299.619 1998.68 296.888C2003.46 293.987 2007.13 290.317 2009.69 285.88C2012.25 281.272 2013.53 276.408 2013.53 271.288C2005.17 267.363 1996.38 265.4 1987.16 265.4C1978.97 265.4 1972.74 267.107 1968.47 270.52C1964.21 273.933 1962.07 278.371 1962.07 283.832C1962.07 288.952 1964.04 293.133 1967.96 296.376C1971.89 299.448 1976.84 300.984 1982.81 300.984ZM2221.6 327.096C2203.85 327.096 2187.64 322.915 2172.96 314.552C2158.28 306.019 2146.68 294.499 2138.14 279.992C2129.78 265.315 2125.6 249.101 2125.6 231.352C2125.6 213.603 2129.78 197.475 2138.14 182.968C2146.68 168.291 2158.28 156.771 2172.96 148.408C2187.64 139.875 2203.85 135.608 2221.6 135.608C2249.25 135.608 2272.12 145.592 2290.21 165.56L2265.89 189.112C2253.77 175.288 2239.09 168.376 2221.85 168.376C2210.42 168.376 2200.01 171.021 2190.62 176.312C2181.24 181.432 2173.81 188.771 2168.35 198.328C2162.89 207.885 2160.16 218.893 2160.16 231.352C2160.16 243.811 2162.89 254.819 2168.35 264.376C2173.81 273.933 2181.24 281.357 2190.62 286.648C2200.01 291.768 2210.42 294.328 2221.85 294.328C2240.97 294.328 2257.01 286.307 2269.98 270.264L2294.81 293.56C2285.6 304.483 2274.85 312.845 2262.56 318.648C2250.27 324.28 2236.62 327.096 2221.6 327.096ZM2337.39 179.128C2331.42 179.128 2326.3 176.995 2322.03 172.728C2317.94 168.461 2315.89 163.341 2315.89 157.368C2315.89 151.395 2318.02 146.36 2322.29 142.264C2326.56 137.997 2331.59 135.864 2337.39 135.864C2343.37 135.864 2348.49 137.997 2352.75 142.264C2357.02 146.36 2359.15 151.395 2359.15 157.368C2359.15 163.341 2357.02 168.461 2352.75 172.728C2348.49 176.995 2343.37 179.128 2337.39 179.128ZM2320.75 196.024H2354.29V323H2320.75V196.024ZM2442.51 325.048C2436.19 325.048 2430.48 324.109 2425.36 322.232C2420.24 320.355 2415.88 317.624 2412.3 314.04C2404.28 306.36 2400.27 295.437 2400.27 281.272V224.696H2378V196.024H2400.27V158.136H2433.8V196.024H2482.96V158.136H2516.24V196.024H2547.47V224.696H2516.24V275.128C2516.24 281.613 2517.69 286.392 2520.59 289.464C2523.32 292.195 2527.24 293.56 2532.36 293.56C2535.27 293.56 2537.91 293.219 2540.3 292.536C2542.69 291.683 2545.33 290.403 2548.24 288.696V320.952C2541.07 323.683 2533.39 325.048 2525.2 325.048C2512.57 325.048 2502.41 321.379 2494.73 314.04C2486.88 306.189 2482.96 295.267 2482.96 281.272V224.696H2433.8V275.128C2433.8 281.784 2435.25 286.563 2438.16 289.464C2440.55 292.195 2444.3 293.56 2449.42 293.56C2453.35 293.56 2457.53 292.365 2461.96 289.976V321.976C2458.72 323.171 2455.73 323.939 2453 324.28C2450.27 324.792 2446.77 325.048 2442.51 325.048ZM2611.63 327.096C2602.93 327.096 2594.99 325.304 2587.82 321.72C2580.65 317.965 2575.02 312.845 2570.93 306.36C2566.83 299.704 2564.78 292.195 2564.78 283.832C2564.78 275.299 2567 267.789 2571.44 261.304C2576.05 254.648 2582.28 249.613 2590.13 246.2C2597.98 242.616 2606.77 240.824 2616.49 240.824C2629.64 240.824 2640.81 242.787 2650.03 246.712V242.36C2650.03 235.533 2647.38 229.987 2642.09 225.72C2636.8 221.283 2630.06 219.064 2621.87 219.064C2609.41 219.064 2599.34 224.013 2591.66 233.912L2568.11 217.016C2574.42 208.824 2582.28 202.595 2591.66 198.328C2601.05 194.061 2611.37 191.928 2622.64 191.928C2642.26 191.928 2657.2 196.536 2667.44 205.752C2677.85 214.968 2683.05 228.451 2683.05 246.2V323H2650.03V309.688H2647.98C2638.6 321.293 2626.48 327.096 2611.63 327.096ZM2619.31 300.984C2625.28 300.984 2630.57 299.619 2635.18 296.888C2639.96 293.987 2643.63 290.317 2646.19 285.88C2648.75 281.272 2650.03 276.408 2650.03 271.288C2641.67 267.363 2632.88 265.4 2623.66 265.4C2615.47 265.4 2609.24 267.107 2604.97 270.52C2600.71 273.933 2598.57 278.371 2598.57 283.832C2598.57 288.952 2600.54 293.133 2604.46 296.376C2608.39 299.448 2613.34 300.984 2619.31 300.984ZM2588.85 136.12H2628.01L2638.77 170.936H2611.63L2588.85 136.12Z" fill="#656C73"/>
<path d="M64.9413 12.9883C11.3645 22.7296 12.7211 76.0038 18.7322 100.66C50.3295 95.789 151.728 86.5706 201.319 84.8095L150.989 0L64.9413 12.9883Z" fill="#EA4335"/>
<path d="M393.519 256.52L467.581 389.65C487.331 389.65 531.822 388.1 543.792 385.701V297.547H561.746V275.958C561.746 271.64 444.39 260.118 393.519 256.52Z" fill="#F9AB00"/>
<path d="M2.26758 128.829C89.8468 112.776 182.035 104.965 231.438 107.195L294.971 221.199C264.049 222.254 239.943 222.892 220.094 223.388V171.047C220.094 163.328 213.837 157.071 206.118 157.071H175.075C167.357 157.071 161.1 163.328 161.1 171.047V225.098C147.267 225.688 134.628 226.495 120.257 227.83V181.736C120.257 174.018 114 167.761 106.281 167.76H75.2383C67.5197 167.76 61.2627 174.018 61.2627 181.736V234.761C48.5302 236.455 34.1085 238.444 17.4258 240.794V154.246H2.26758V128.829Z" fill="#EA4335"/>
<path d="M263.203 105.414C370.301 99.7141 509.013 113.726 564.982 121.446V148.166H549.099V240.795C545.471 239.656 520.706 237.151 487.836 234.213V181.736C487.836 174.017 481.579 167.76 473.86 167.76H442.817C435.099 167.76 428.842 174.017 428.842 181.736V229.164C413.591 227.901 398.18 226.651 383.462 225.474V171.047C383.462 163.329 377.205 157.072 369.486 157.072H338.443C330.725 157.072 324.468 163.329 324.468 171.047V213.216L263.203 105.414Z" fill="#34A853"/>
<path d="M0 267.515C117.989 246.139 289.678 246.732 356.235 249.701L440.188 393.988C400.633 396.699 363.539 398.383 329.007 399.257V309.992C329.007 302.274 322.75 296.017 315.031 296.017H283.988C276.27 296.017 270.013 302.274 270.013 309.992V400C254.22 399.992 239.089 399.812 224.633 399.486V309.992C224.633 302.274 218.376 296.017 210.657 296.017H179.614C171.896 296.017 165.639 302.274 165.639 309.992V397.217C149.312 396.313 134.176 395.229 120.259 394.025V306.429C120.259 298.71 114.002 292.453 106.283 292.453H75.2402C67.5217 292.453 61.2647 298.71 61.2646 306.429V387.35C43.3692 384.743 29.6958 382.083 20.4209 379.738V301.359H0V267.515Z" fill="#4285F4"/>
</svg>
