<svg width="1983" height="1082" viewBox="0 0 1983 1082" fill="none" xmlns="http://www.w3.org/2000/svg">
<path d="M108.032 1007.71C90.4533 1007.71 74.24 1003.62 59.392 995.427C44.7147 987.064 33.024 975.629 24.32 961.123C15.616 946.445 11.264 930.061 11.264 911.971C11.264 893.88 15.616 877.581 24.32 863.075C33.024 848.397 44.7147 836.963 59.392 828.771C74.24 820.408 90.4533 816.227 108.032 816.227C122.368 816.227 135.424 818.787 147.2 823.907C159.147 828.856 169.301 835.939 177.664 845.155L153.856 868.451C147.712 861.965 140.885 857.101 133.376 853.859C126.037 850.616 117.419 848.995 107.52 848.995C96.4267 848.995 86.1013 851.64 76.544 856.931C67.1573 862.221 59.648 869.645 54.016 879.203C48.5547 888.76 45.824 899.683 45.824 911.971C45.824 924.259 48.64 935.181 54.272 944.739C59.904 954.296 67.4133 961.72 76.8 967.011C86.3573 972.301 96.768 974.947 108.032 974.947C124.928 974.947 139.008 969.912 150.272 959.843C153.685 956.6 156.587 952.675 158.976 948.067C161.536 943.288 163.413 938.083 164.608 932.451H107.264V903.011H197.12C198.315 907.789 198.912 913.165 198.912 919.139C198.912 931.256 197.035 942.52 193.28 952.931C189.696 963.341 184.149 972.472 176.64 980.323C168.277 989.197 158.293 996.024 146.688 1000.8C135.253 1005.41 122.368 1007.71 108.032 1007.71ZM230.724 820.323H292.676C311.791 820.323 328.431 824.163 342.596 831.843C356.761 839.523 367.684 850.275 375.364 864.099C383.044 877.923 386.884 893.88 386.884 911.971C386.884 930.061 383.044 946.019 375.364 959.843C367.684 973.667 356.761 984.419 342.596 992.099C328.431 999.779 311.791 1003.62 292.676 1003.62H230.724V820.323ZM291.14 970.851C310.937 970.851 326.041 965.645 336.452 955.235C347.033 944.653 352.324 930.232 352.324 911.971C352.324 893.709 347.033 879.373 336.452 868.963C326.041 858.381 310.937 853.091 291.14 853.091H265.284V970.851H291.14ZM506.282 1007.71C488.703 1007.71 472.49 1003.62 457.642 995.427C442.965 987.064 431.274 975.629 422.57 961.123C413.866 946.445 409.514 930.061 409.514 911.971C409.514 893.88 413.866 877.581 422.57 863.075C431.274 848.397 442.965 836.963 457.642 828.771C472.49 820.408 488.703 816.227 506.282 816.227C520.618 816.227 533.674 818.787 545.45 823.907C557.397 828.856 567.551 835.939 575.914 845.155L552.106 868.451C545.962 861.965 539.135 857.101 531.626 853.859C524.287 850.616 515.669 848.995 505.77 848.995C494.677 848.995 484.351 851.64 474.794 856.931C465.407 862.221 457.898 869.645 452.266 879.203C446.805 888.76 444.074 899.683 444.074 911.971C444.074 924.259 446.89 935.181 452.522 944.739C458.154 954.296 465.663 961.72 475.05 967.011C484.607 972.301 495.018 974.947 506.282 974.947C523.178 974.947 537.258 969.912 548.522 959.843C551.935 956.6 554.837 952.675 557.226 948.067C559.786 943.288 561.663 938.083 562.858 932.451H505.514V903.011H595.37C596.565 907.789 597.162 913.165 597.162 919.139C597.162 931.256 595.285 942.52 591.53 952.931C587.946 963.341 582.399 972.472 574.89 980.323C566.527 989.197 556.543 996.024 544.938 1000.8C533.503 1005.41 520.618 1007.71 506.282 1007.71ZM687.974 820.323H754.79C766.737 820.323 777.318 822.797 786.534 827.747C795.921 832.696 803.174 839.608 808.294 848.483C813.414 857.187 815.974 867.085 815.974 878.179C815.974 889.955 812.219 900.451 804.71 909.667C797.371 918.712 788.07 925.283 776.806 929.379L776.55 931.171L825.702 1001.57V1003.62H786.022L738.662 934.755H722.534V1003.62H687.974V820.323ZM754.534 903.011C762.385 903.011 768.785 900.621 773.734 895.843C778.854 891.064 781.414 885.005 781.414 877.667C781.414 870.669 779.025 864.696 774.246 859.747C769.638 854.797 763.238 852.323 755.046 852.323H722.534V903.011H754.534ZM902.788 1007.71C889.817 1007.71 878.212 1004.81 867.972 999.011C857.732 993.208 849.711 985.187 843.908 974.947C838.105 964.536 835.204 952.931 835.204 940.131C835.204 927.16 838.105 915.555 843.908 905.315C849.711 895.075 857.732 887.053 867.972 881.251C878.212 875.448 889.817 872.547 902.788 872.547C915.588 872.547 927.108 875.448 937.348 881.251C947.588 887.053 955.609 895.16 961.412 905.571C967.215 915.811 970.116 927.331 970.116 940.131C970.116 952.931 967.215 964.536 961.412 974.947C955.609 985.187 947.588 993.208 937.348 999.011C927.108 1004.81 915.588 1007.71 902.788 1007.71ZM902.788 976.739C908.761 976.739 914.308 975.288 919.428 972.387C924.719 969.315 928.9 965.048 931.972 959.587C935.044 953.955 936.58 947.469 936.58 940.131C936.58 932.792 935.044 926.392 931.972 920.931C928.9 915.299 924.719 911.032 919.428 908.131C914.308 905.059 908.761 903.523 902.788 903.523C896.644 903.523 890.927 905.059 885.636 908.131C880.516 911.032 876.42 915.299 873.348 920.931C870.276 926.392 868.74 932.792 868.74 940.131C868.74 947.469 870.276 953.955 873.348 959.587C876.42 965.048 880.516 969.315 885.636 972.387C890.927 975.288 896.644 976.739 902.788 976.739ZM992.122 876.643H1023.61V893.027H1025.66C1029.58 886.712 1034.96 881.763 1041.79 878.179C1048.61 874.424 1056.12 872.547 1064.31 872.547C1073.53 872.547 1081.47 874.68 1088.12 878.947C1094.95 883.213 1099.81 888.76 1102.71 895.587C1106.98 888.76 1112.78 883.213 1120.12 878.947C1127.46 874.68 1135.99 872.547 1145.72 872.547C1160.57 872.547 1171.75 877.155 1179.26 886.371C1186.94 895.416 1190.78 907.619 1190.78 922.979V1003.62H1157.5V929.123C1157.5 920.76 1155.62 914.445 1151.87 910.179C1148.28 905.741 1143.08 903.523 1136.25 903.523C1127.55 903.523 1120.72 907.021 1115.77 914.019C1110.82 921.016 1108.35 930.061 1108.35 941.155V1003.62H1074.81V929.123C1074.81 912.056 1067.3 903.523 1052.28 903.523C1044.09 903.523 1037.6 907.021 1032.83 914.019C1028.05 921.016 1025.66 930.061 1025.66 941.155V1003.62H992.122V876.643ZM1259.8 1007.71C1251.09 1007.71 1243.16 1005.92 1235.99 1002.34C1228.82 998.584 1223.19 993.464 1219.09 986.979C1215 980.323 1212.95 972.813 1212.95 964.451C1212.95 955.917 1215.17 948.408 1219.6 941.923C1224.21 935.267 1230.44 930.232 1238.29 926.819C1246.14 923.235 1254.93 921.443 1264.66 921.443C1277.8 921.443 1288.98 923.405 1298.2 927.331V922.979C1298.2 916.152 1295.55 910.605 1290.26 906.339C1284.97 901.901 1278.23 899.683 1270.04 899.683C1257.58 899.683 1247.51 904.632 1239.83 914.531L1216.28 897.635C1222.59 889.443 1230.44 883.213 1239.83 878.947C1249.21 874.68 1259.54 872.547 1270.8 872.547C1290.43 872.547 1305.36 877.155 1315.6 886.371C1326.01 895.587 1331.22 909.069 1331.22 926.819V1003.62H1298.2V990.307H1296.15C1286.76 1001.91 1274.64 1007.71 1259.8 1007.71ZM1267.48 981.603C1273.45 981.603 1278.74 980.237 1283.35 977.507C1288.13 974.605 1291.8 970.936 1294.36 966.499C1296.92 961.891 1298.2 957.027 1298.2 951.907C1289.83 947.981 1281.04 946.019 1271.83 946.019C1263.64 946.019 1257.41 947.725 1253.14 951.139C1248.87 954.552 1246.74 958.989 1246.74 964.451C1246.74 969.571 1248.7 973.752 1252.63 976.995C1256.55 980.067 1261.5 981.603 1267.48 981.603ZM1506.26 1007.71C1488.51 1007.71 1472.3 1003.53 1457.62 995.171C1442.95 986.637 1431.34 975.117 1422.81 960.611C1414.45 945.933 1410.26 929.72 1410.26 911.971C1410.26 894.221 1414.45 878.093 1422.81 863.587C1431.34 848.909 1442.95 837.389 1457.62 829.027C1472.3 820.493 1488.51 816.227 1506.26 816.227C1533.91 816.227 1556.78 826.211 1574.87 846.179L1550.55 869.731C1538.43 855.907 1523.76 848.995 1506.52 848.995C1495.09 848.995 1484.67 851.64 1475.29 856.931C1465.9 862.051 1458.48 869.389 1453.02 878.947C1447.55 888.504 1444.82 899.512 1444.82 911.971C1444.82 924.429 1447.55 935.437 1453.02 944.995C1458.48 954.552 1465.9 961.976 1475.29 967.267C1484.67 972.387 1495.09 974.947 1506.52 974.947C1525.63 974.947 1541.68 966.925 1554.65 950.883L1579.48 974.179C1570.26 985.101 1559.51 993.464 1547.22 999.267C1534.94 1004.9 1521.28 1007.71 1506.26 1007.71ZM1622.06 859.747C1616.09 859.747 1610.97 857.613 1606.7 853.347C1602.6 849.08 1600.56 843.96 1600.56 837.987C1600.56 832.013 1602.69 826.979 1606.96 822.883C1611.22 818.616 1616.26 816.483 1622.06 816.483C1628.03 816.483 1633.15 818.616 1637.42 822.883C1641.69 826.979 1643.82 832.013 1643.82 837.987C1643.82 843.96 1641.69 849.08 1637.42 853.347C1633.15 857.613 1628.03 859.747 1622.06 859.747ZM1605.42 876.643H1638.96V1003.62H1605.42V876.643ZM1727.17 1005.67C1720.86 1005.67 1715.14 1004.73 1710.02 1002.85C1704.9 1000.97 1700.55 998.243 1696.97 994.659C1688.94 986.979 1684.93 976.056 1684.93 961.891V905.315H1662.66V876.643H1684.93V838.755H1718.47V876.643H1767.62V838.755H1800.9V876.643H1832.13V905.315H1800.9V955.747C1800.9 962.232 1802.35 967.011 1805.25 970.083C1807.98 972.813 1811.91 974.179 1817.03 974.179C1819.93 974.179 1822.58 973.837 1824.97 973.155C1827.36 972.301 1830 971.021 1832.9 969.315V1001.57C1825.73 1004.3 1818.05 1005.67 1809.86 1005.67C1797.23 1005.67 1787.08 1002 1779.4 994.659C1771.55 986.808 1767.62 975.885 1767.62 961.891V905.315H1718.47V955.747C1718.47 962.403 1719.92 967.181 1722.82 970.083C1725.21 972.813 1728.97 974.179 1734.09 974.179C1738.01 974.179 1742.19 972.984 1746.63 970.595V1002.59C1743.39 1003.79 1740.4 1004.56 1737.67 1004.9C1734.94 1005.41 1731.44 1005.67 1727.17 1005.67ZM1896.3 1007.71C1887.59 1007.71 1879.66 1005.92 1872.49 1002.34C1865.32 998.584 1859.69 993.464 1855.59 986.979C1851.5 980.323 1849.45 972.813 1849.45 964.451C1849.45 955.917 1851.67 948.408 1856.1 941.923C1860.71 935.267 1866.94 930.232 1874.79 926.819C1882.64 923.235 1891.43 921.443 1901.16 921.443C1914.3 921.443 1925.48 923.405 1934.7 927.331V922.979C1934.7 916.152 1932.05 910.605 1926.76 906.339C1921.47 901.901 1914.73 899.683 1906.54 899.683C1894.08 899.683 1884.01 904.632 1876.33 914.531L1852.78 897.635C1859.09 889.443 1866.94 883.213 1876.33 878.947C1885.71 874.68 1896.04 872.547 1907.3 872.547C1926.93 872.547 1941.86 877.155 1952.1 886.371C1962.51 895.587 1967.72 909.069 1967.72 926.819V1003.62H1934.7V990.307H1932.65C1923.26 1001.91 1911.14 1007.71 1896.3 1007.71ZM1903.98 981.603C1909.95 981.603 1915.24 980.237 1919.85 977.507C1924.63 974.605 1928.3 970.936 1930.86 966.499C1933.42 961.891 1934.7 957.027 1934.7 951.907C1926.33 947.981 1917.54 946.019 1908.33 946.019C1900.14 946.019 1893.91 947.725 1889.64 951.139C1885.37 954.552 1883.24 958.989 1883.24 964.451C1883.24 969.571 1885.2 973.752 1889.13 976.995C1893.05 980.067 1898 981.603 1903.98 981.603ZM1873.51 816.739H1912.68L1923.43 851.555H1896.3L1873.51 816.739Z" fill="#656C73"/>
<path d="M614.023 21.3226C526.068 37.3145 528.295 124.773 538.163 165.25C590.036 157.254 756.498 142.12 837.911 139.229L755.286 0L614.023 21.3226Z" fill="#EA4335"/>
<path d="M1153.44 421.12L1275.02 639.676C1307.45 639.676 1380.49 637.131 1400.14 633.193V488.473H1429.61V453.032C1429.61 445.944 1236.95 427.027 1153.44 421.12Z" fill="#F9AB00"/>
<path fill-rule="evenodd" clip-rule="evenodd" d="M511.135 211.494C654.912 185.141 806.254 172.317 887.358 175.978L991.657 363.136C940.894 364.869 901.319 365.916 868.733 366.731V271.834C868.733 264.116 862.476 257.859 854.758 257.859H785.86C778.142 257.859 771.885 264.116 771.885 271.834V369.537C749.176 370.506 728.427 371.83 704.835 374.022V289.382C704.835 281.664 698.578 275.407 690.859 275.406H621.961C614.242 275.407 607.985 281.663 607.985 289.382V385.399C587.083 388.179 563.408 391.447 536.02 395.304V253.221H511.135V211.494Z" fill="#EA4335"/>
<path fill-rule="evenodd" clip-rule="evenodd" d="M939.508 173.055C1115.33 163.697 1343.05 186.702 1434.93 199.375V243.24H1408.85V395.305C1402.9 393.435 1362.24 389.325 1308.28 384.503V289.382C1308.28 281.664 1302.02 275.407 1294.3 275.407H1225.41C1217.69 275.407 1211.43 281.664 1211.43 289.382V376.211C1186.39 374.137 1161.09 372.087 1136.93 370.155V271.836C1136.93 264.118 1130.67 257.861 1122.96 257.861H1054.06C1046.34 257.861 1040.08 264.118 1040.08 271.836V350.027L939.508 173.055Z" fill="#34A853"/>
<path fill-rule="evenodd" clip-rule="evenodd" d="M507.411 439.17C701.11 404.078 982.966 405.053 1092.23 409.927L1230.06 646.799C1165.12 651.25 1104.22 654.013 1047.53 655.447V499.936C1047.53 492.217 1041.27 485.96 1033.56 485.96H964.658C956.94 485.96 950.683 492.217 950.682 499.936V656.668C924.756 656.655 899.916 656.358 876.183 655.824V499.936C876.183 492.217 869.925 485.96 862.207 485.96H793.309C785.591 485.96 779.334 492.217 779.334 499.936V652.103C752.531 650.618 727.683 648.838 704.835 646.862V494.087C704.835 486.369 698.578 480.112 690.859 480.111H621.961C614.242 480.112 607.985 486.369 607.985 494.087V635.902C578.608 631.623 556.161 627.254 540.935 623.404V494.733H507.411V439.17Z" fill="#4285F4"/>
</svg>
