<svg width="1984" height="1083" viewBox="0 0 1984 1083" fill="none" xmlns="http://www.w3.org/2000/svg">
<path d="M108.032 1008.1C90.4533 1008.1 74.24 1004 59.392 995.808C44.7147 987.445 33.024 976.011 24.32 961.504C15.616 946.827 11.264 930.443 11.264 912.352C11.264 894.261 15.616 877.963 24.32 863.456C33.024 848.779 44.7147 837.344 59.392 829.152C74.24 820.789 90.4533 816.608 108.032 816.608C122.368 816.608 135.424 819.168 147.2 824.288C159.147 829.237 169.301 836.32 177.664 845.536L153.856 868.832C147.712 862.347 140.885 857.483 133.376 854.24C126.037 850.997 117.419 849.376 107.52 849.376C96.4267 849.376 86.1013 852.021 76.544 857.312C67.1573 862.603 59.648 870.027 54.016 879.584C48.5547 889.141 45.824 900.064 45.824 912.352C45.824 924.64 48.64 935.563 54.272 945.12C59.904 954.677 67.4133 962.101 76.8 967.392C86.3573 972.683 96.768 975.328 108.032 975.328C124.928 975.328 139.008 970.293 150.272 960.224C153.685 956.981 156.587 953.056 158.976 948.448C161.536 943.669 163.413 938.464 164.608 932.832H107.264V903.392H197.12C198.315 908.171 198.912 913.547 198.912 919.52C198.912 931.637 197.035 942.901 193.28 953.312C189.696 963.723 184.149 972.853 176.64 980.704C168.277 989.579 158.293 996.405 146.688 1001.18C135.253 1005.79 122.368 1008.1 108.032 1008.1ZM230.724 820.704H292.676C311.791 820.704 328.431 824.544 342.596 832.224C356.761 839.904 367.684 850.656 375.364 864.48C383.044 878.304 386.884 894.261 386.884 912.352C386.884 930.443 383.044 946.4 375.364 960.224C367.684 974.048 356.761 984.8 342.596 992.48C328.431 1000.16 311.791 1004 292.676 1004H230.724V820.704ZM291.14 971.232C310.937 971.232 326.041 966.027 336.452 955.616C347.033 945.035 352.324 930.613 352.324 912.352C352.324 894.091 347.033 879.755 336.452 869.344C326.041 858.763 310.937 853.472 291.14 853.472H265.284V971.232H291.14ZM506.282 1008.1C488.703 1008.1 472.49 1004 457.642 995.808C442.965 987.445 431.274 976.011 422.57 961.504C413.866 946.827 409.514 930.443 409.514 912.352C409.514 894.261 413.866 877.963 422.57 863.456C431.274 848.779 442.965 837.344 457.642 829.152C472.49 820.789 488.703 816.608 506.282 816.608C520.618 816.608 533.674 819.168 545.45 824.288C557.397 829.237 567.551 836.32 575.914 845.536L552.106 868.832C545.962 862.347 539.135 857.483 531.626 854.24C524.287 850.997 515.669 849.376 505.77 849.376C494.677 849.376 484.351 852.021 474.794 857.312C465.407 862.603 457.898 870.027 452.266 879.584C446.805 889.141 444.074 900.064 444.074 912.352C444.074 924.64 446.89 935.563 452.522 945.12C458.154 954.677 465.663 962.101 475.05 967.392C484.607 972.683 495.018 975.328 506.282 975.328C523.178 975.328 537.258 970.293 548.522 960.224C551.935 956.981 554.837 953.056 557.226 948.448C559.786 943.669 561.663 938.464 562.858 932.832H505.514V903.392H595.37C596.565 908.171 597.162 913.547 597.162 919.52C597.162 931.637 595.285 942.901 591.53 953.312C587.946 963.723 582.399 972.853 574.89 980.704C566.527 989.579 556.543 996.405 544.938 1001.18C533.503 1005.79 520.618 1008.1 506.282 1008.1ZM687.974 820.704H754.79C766.737 820.704 777.318 823.179 786.534 828.128C795.921 833.077 803.174 839.989 808.294 848.864C813.414 857.568 815.974 867.467 815.974 878.56C815.974 890.336 812.219 900.832 804.71 910.048C797.371 919.093 788.07 925.664 776.806 929.76L776.55 931.552L825.702 1001.95V1004H786.022L738.662 935.136H722.534V1004H687.974V820.704ZM754.534 903.392C762.385 903.392 768.785 901.003 773.734 896.224C778.854 891.445 781.414 885.387 781.414 878.048C781.414 871.051 779.025 865.077 774.246 860.128C769.638 855.179 763.238 852.704 755.046 852.704H722.534V903.392H754.534ZM902.788 1008.1C889.817 1008.1 878.212 1005.19 867.972 999.392C857.732 993.589 849.711 985.568 843.908 975.328C838.105 964.917 835.204 953.312 835.204 940.512C835.204 927.541 838.105 915.936 843.908 905.696C849.711 895.456 857.732 887.435 867.972 881.632C878.212 875.829 889.817 872.928 902.788 872.928C915.588 872.928 927.108 875.829 937.348 881.632C947.588 887.435 955.609 895.541 961.412 905.952C967.215 916.192 970.116 927.712 970.116 940.512C970.116 953.312 967.215 964.917 961.412 975.328C955.609 985.568 947.588 993.589 937.348 999.392C927.108 1005.19 915.588 1008.1 902.788 1008.1ZM902.788 977.12C908.761 977.12 914.308 975.669 919.428 972.768C924.719 969.696 928.9 965.429 931.972 959.968C935.044 954.336 936.58 947.851 936.58 940.512C936.58 933.173 935.044 926.773 931.972 921.312C928.9 915.68 924.719 911.413 919.428 908.512C914.308 905.44 908.761 903.904 902.788 903.904C896.644 903.904 890.927 905.44 885.636 908.512C880.516 911.413 876.42 915.68 873.348 921.312C870.276 926.773 868.74 933.173 868.74 940.512C868.74 947.851 870.276 954.336 873.348 959.968C876.42 965.429 880.516 969.696 885.636 972.768C890.927 975.669 896.644 977.12 902.788 977.12ZM992.122 877.024H1023.61V893.408H1025.66C1029.58 887.093 1034.96 882.144 1041.79 878.56C1048.61 874.805 1056.12 872.928 1064.31 872.928C1073.53 872.928 1081.47 875.061 1088.12 879.328C1094.95 883.595 1099.81 889.141 1102.71 895.968C1106.98 889.141 1112.78 883.595 1120.12 879.328C1127.46 875.061 1135.99 872.928 1145.72 872.928C1160.57 872.928 1171.75 877.536 1179.26 886.752C1186.94 895.797 1190.78 908 1190.78 923.36V1004H1157.5V929.504C1157.5 921.141 1155.62 914.827 1151.87 910.56C1148.28 906.123 1143.08 903.904 1136.25 903.904C1127.55 903.904 1120.72 907.403 1115.77 914.4C1110.82 921.397 1108.35 930.443 1108.35 941.536V1004H1074.81V929.504C1074.81 912.437 1067.3 903.904 1052.28 903.904C1044.09 903.904 1037.6 907.403 1032.83 914.4C1028.05 921.397 1025.66 930.443 1025.66 941.536V1004H992.122V877.024ZM1259.8 1008.1C1251.09 1008.1 1243.16 1006.3 1235.99 1002.72C1228.82 998.965 1223.19 993.845 1219.09 987.36C1215 980.704 1212.95 973.195 1212.95 964.832C1212.95 956.299 1215.17 948.789 1219.6 942.304C1224.21 935.648 1230.44 930.613 1238.29 927.2C1246.14 923.616 1254.93 921.824 1264.66 921.824C1277.8 921.824 1288.98 923.787 1298.2 927.712V923.36C1298.2 916.533 1295.55 910.987 1290.26 906.72C1284.97 902.283 1278.23 900.064 1270.04 900.064C1257.58 900.064 1247.51 905.013 1239.83 914.912L1216.28 898.016C1222.59 889.824 1230.44 883.595 1239.83 879.328C1249.21 875.061 1259.54 872.928 1270.8 872.928C1290.43 872.928 1305.36 877.536 1315.6 886.752C1326.01 895.968 1331.22 909.451 1331.22 927.2V1004H1298.2V990.688H1296.15C1286.76 1002.29 1274.64 1008.1 1259.8 1008.1ZM1267.48 981.984C1273.45 981.984 1278.74 980.619 1283.35 977.888C1288.13 974.987 1291.8 971.317 1294.36 966.88C1296.92 962.272 1298.2 957.408 1298.2 952.288C1289.83 948.363 1281.04 946.4 1271.83 946.4C1263.64 946.4 1257.41 948.107 1253.14 951.52C1248.87 954.933 1246.74 959.371 1246.74 964.832C1246.74 969.952 1248.7 974.133 1252.63 977.376C1256.55 980.448 1261.5 981.984 1267.48 981.984ZM1506.26 1008.1C1488.51 1008.1 1472.3 1003.91 1457.62 995.552C1442.95 987.019 1431.34 975.499 1422.81 960.992C1414.45 946.315 1410.26 930.101 1410.26 912.352C1410.26 894.603 1414.45 878.475 1422.81 863.968C1431.34 849.291 1442.95 837.771 1457.62 829.408C1472.3 820.875 1488.51 816.608 1506.26 816.608C1533.91 816.608 1556.78 826.592 1574.87 846.56L1550.55 870.112C1538.43 856.288 1523.76 849.376 1506.52 849.376C1495.09 849.376 1484.67 852.021 1475.29 857.312C1465.9 862.432 1458.48 869.771 1453.02 879.328C1447.55 888.885 1444.82 899.893 1444.82 912.352C1444.82 924.811 1447.55 935.819 1453.02 945.376C1458.48 954.933 1465.9 962.357 1475.29 967.648C1484.67 972.768 1495.09 975.328 1506.52 975.328C1525.63 975.328 1541.68 967.307 1554.65 951.264L1579.48 974.56C1570.26 985.483 1559.51 993.845 1547.22 999.648C1534.94 1005.28 1521.28 1008.1 1506.26 1008.1ZM1622.06 860.128C1616.09 860.128 1610.97 857.995 1606.7 853.728C1602.6 849.461 1600.56 844.341 1600.56 838.368C1600.56 832.395 1602.69 827.36 1606.96 823.264C1611.22 818.997 1616.26 816.864 1622.06 816.864C1628.03 816.864 1633.15 818.997 1637.42 823.264C1641.69 827.36 1643.82 832.395 1643.82 838.368C1643.82 844.341 1641.69 849.461 1637.42 853.728C1633.15 857.995 1628.03 860.128 1622.06 860.128ZM1605.42 877.024H1638.96V1004H1605.42V877.024ZM1727.17 1006.05C1720.86 1006.05 1715.14 1005.11 1710.02 1003.23C1704.9 1001.35 1700.55 998.624 1696.97 995.04C1688.94 987.36 1684.93 976.437 1684.93 962.272V905.696H1662.66V877.024H1684.93V839.136H1718.47V877.024H1767.62V839.136H1800.9V877.024H1832.13V905.696H1800.9V956.128C1800.9 962.613 1802.35 967.392 1805.25 970.464C1807.98 973.195 1811.91 974.56 1817.03 974.56C1819.93 974.56 1822.58 974.219 1824.97 973.536C1827.36 972.683 1830 971.403 1832.9 969.696V1001.95C1825.73 1004.68 1818.05 1006.05 1809.86 1006.05C1797.23 1006.05 1787.08 1002.38 1779.4 995.04C1771.55 987.189 1767.62 976.267 1767.62 962.272V905.696H1718.47V956.128C1718.47 962.784 1719.92 967.563 1722.82 970.464C1725.21 973.195 1728.97 974.56 1734.09 974.56C1738.01 974.56 1742.19 973.365 1746.63 970.976V1002.98C1743.39 1004.17 1740.4 1004.94 1737.67 1005.28C1734.94 1005.79 1731.44 1006.05 1727.17 1006.05ZM1896.3 1008.1C1887.59 1008.1 1879.66 1006.3 1872.49 1002.72C1865.32 998.965 1859.69 993.845 1855.59 987.36C1851.5 980.704 1849.45 973.195 1849.45 964.832C1849.45 956.299 1851.67 948.789 1856.1 942.304C1860.71 935.648 1866.94 930.613 1874.79 927.2C1882.64 923.616 1891.43 921.824 1901.16 921.824C1914.3 921.824 1925.48 923.787 1934.7 927.712V923.36C1934.7 916.533 1932.05 910.987 1926.76 906.72C1921.47 902.283 1914.73 900.064 1906.54 900.064C1894.08 900.064 1884.01 905.013 1876.33 914.912L1852.78 898.016C1859.09 889.824 1866.94 883.595 1876.33 879.328C1885.71 875.061 1896.04 872.928 1907.3 872.928C1926.93 872.928 1941.86 877.536 1952.1 886.752C1962.51 895.968 1967.72 909.451 1967.72 927.2V1004H1934.7V990.688H1932.65C1923.26 1002.29 1911.14 1008.1 1896.3 1008.1ZM1903.98 981.984C1909.95 981.984 1915.24 980.619 1919.85 977.888C1924.63 974.987 1928.3 971.317 1930.86 966.88C1933.42 962.272 1934.7 957.408 1934.7 952.288C1926.33 948.363 1917.54 946.4 1908.33 946.4C1900.14 946.4 1893.91 948.107 1889.64 951.52C1885.37 954.933 1883.24 959.371 1883.24 964.832C1883.24 969.952 1885.2 974.133 1889.13 977.376C1893.05 980.448 1898 981.984 1903.98 981.984ZM1873.51 817.12H1912.68L1923.43 851.936H1896.3L1873.51 817.12Z" fill="white"/>
<path d="M614.333 21.3333C526.333 37.3333 528.561 124.836 538.435 165.333C590.333 157.333 756.879 142.192 838.333 139.299L755.667 0L614.333 21.3333Z" fill="#EA4335"/>
<path d="M1154.02 421.333L1275.67 639.999C1308.11 639.999 1381.18 637.453 1400.84 633.513V488.72H1430.33V453.26C1430.33 446.169 1237.58 427.242 1154.02 421.333Z" fill="#F9AB00"/>
<path fill-rule="evenodd" clip-rule="evenodd" d="M536.29 395.503V253.348H511.393V211.6C655.242 185.233 806.66 172.405 887.805 176.067L992.157 363.319C941.368 365.053 901.774 366.102 869.172 366.916V271.964C869.172 264.246 862.914 257.989 855.196 257.989H786.249C778.531 257.989 772.273 264.246 772.273 271.964V369.722C749.554 370.691 728.794 372.014 705.19 374.207V289.52C705.19 281.802 698.933 275.545 691.214 275.545H622.268C614.549 275.545 608.292 281.802 608.292 289.52V385.592C587.379 388.374 563.692 391.644 536.29 395.503Z" fill="#EA4335"/>
<path fill-rule="evenodd" clip-rule="evenodd" d="M1040.61 271.966V350.205L939.981 173.143C1115.89 163.78 1343.72 186.796 1435.65 199.475V243.362H1409.56V395.505C1403.61 393.634 1362.93 389.52 1308.94 384.695V289.522C1308.94 281.803 1302.68 275.546 1294.96 275.546H1226.02C1218.3 275.546 1212.04 281.803 1212.04 289.522V376.401C1186.99 374.326 1161.68 372.272 1137.5 370.339V271.966C1137.5 264.248 1131.25 257.991 1123.53 257.991H1054.58C1046.86 257.991 1040.61 264.248 1040.61 271.966Z" fill="#34A853"/>
<path fill-rule="evenodd" clip-rule="evenodd" d="M541.208 494.983V623.719C556.442 627.57 578.899 631.944 608.292 636.225V494.329C608.292 486.611 614.549 480.354 622.267 480.354H691.214C698.933 480.354 705.19 486.611 705.19 494.329V647.191C728.049 649.167 752.911 650.948 779.727 652.433V500.182C779.727 492.463 785.984 486.206 793.702 486.206H862.649C870.368 486.206 876.625 492.463 876.625 500.182V656.157C900.37 656.691 925.223 656.988 951.162 657.001V500.182C951.162 492.463 957.419 486.206 965.138 486.206H1034.08C1041.8 486.206 1048.06 492.463 1048.06 500.182V655.78C1104.78 654.345 1165.71 651.578 1230.68 647.125L1092.78 410.134C983.462 405.258 701.463 404.282 507.667 439.392V494.983H541.208Z" fill="#4285F4"/>
</svg>
